<svg viewBox="0 0 64 64" xmlns="http://www.w3.org/2000/svg"><path d="m48.7 29.29a11.27 11.27 0 0 1 -3.1 7.78 10.8 10.8 0 0 0 -7.6-3.07 11 11 0 0 0 -3.1.44 11.22 11.22 0 0 0 -8.4-7.92 11.28 11.28 0 0 1 22.2 2.77z" fill="#fb0"/><path d="m48.71 18.01 3.67-3.68" fill="none"/><path d="m60.68 54.62s0 0 0 0a2.79 2.79 0 0 1 -2.36 1.23h-52.62a2.81 2.81 0 0 1 -2.41-1.31 11.22 11.22 0 0 1 -1.66-5.88 10.84 10.84 0 0 1 .19-2.07 11.2 11.2 0 0 1 11-9.17 11.24 11.24 0 0 1 11.25-11.21 10.69 10.69 0 0 1 2.42.27 11.22 11.22 0 0 1 8.4 7.92 11 11 0 0 1 3.11-.4 10.8 10.8 0 0 1 7.61 3.1 9.82 9.82 0 0 1 1.39 1.59 11 11 0 0 1 15.25 7.91 12 12 0 0 1 -1.57 8.02z" fill="#e2e2e2"/><path d="m26.13 18.01-3.67-3.68" fill="none"/><ellipse cx="41.23" cy="22.21" fill="#fff" rx=".93" ry="2.12" transform="matrix(.45476788 -.89061 .89061 .45476788 2.7 48.83)"/><ellipse cx="44.14" cy="24.86" fill="#fff" rx=".6" ry="1.37" transform="matrix(.83 -.55 .55 .83 -6.38 28.63)"/><path d="m32.5 47.85a1.69 1.69 0 0 0 1.24-.43 1.58 1.58 0 0 0 .43-1.22h3.58a4.5 4.5 0 0 1 -.39 1.89 4.27 4.27 0 0 1 -1.08 1.44 4.82 4.82 0 0 1 -1.64.94 6.25 6.25 0 0 1 -2 .33 6.16 6.16 0 0 1 -2.52-.48 5 5 0 0 1 -1.84-1.32 5.46 5.46 0 0 1 -1.08-2 8 8 0 0 1 -.36-2.46v-.26a8.13 8.13 0 0 1 .36-2.46 5.5 5.5 0 0 1 1.08-2 4.94 4.94 0 0 1 1.78-1.31 6.18 6.18 0 0 1 2.49-.47 6.4 6.4 0 0 1 2.11.33 4.51 4.51 0 0 1 1.64 1 4.26 4.26 0 0 1 1.07 1.55 5.43 5.43 0 0 1 .38 2.08h-3.58a3.19 3.19 0 0 0 -.09-.77 1.71 1.71 0 0 0 -.32-.63 1.57 1.57 0 0 0 -.53-.42 1.82 1.82 0 0 0 -.77-.15 1.52 1.52 0 0 0 -.94.27 1.64 1.64 0 0 0 -.52.7 3.84 3.84 0 0 0 -.26 1 12.47 12.47 0 0 0 -.06 1.25v.26a12.79 12.79 0 0 0 .06 1.28 3.86 3.86 0 0 0 .26 1 1.62 1.62 0 0 0 .56.7 1.66 1.66 0 0 0 .94.36z" fill="#fb0"/><circle cx="23.88" cy="39.01" fill="#fb0" r="2.19"/><g fill="none"><path d="m48.7 29.29a11.27 11.27 0 0 1 -3.1 7.78 10.8 10.8 0 0 0 -7.6-3.07 11 11 0 0 0 -3.1.44 11.22 11.22 0 0 0 -8.4-7.92 11.28 11.28 0 0 1 22.2 2.77z" stroke="#000" stroke-linecap="round" stroke-linejoin="round" stroke-width="2"/><path d="m37.42 13.33v-5.19" stroke="#000" stroke-linecap="round" stroke-linejoin="round" stroke-width="2"/><path d="m53.38 29.29h5.19" stroke="#000" stroke-linecap="round" stroke-linejoin="round" stroke-width="2"/><path d="m48.71 18.01 3.67-3.68" stroke="#000" stroke-linecap="round" stroke-linejoin="round" stroke-width="2"/><path d="m60.68 54.62s0 0 0 0a2.79 2.79 0 0 1 -2.36 1.23h-52.62a2.81 2.81 0 0 1 -2.41-1.31 11.22 11.22 0 0 1 -1.66-5.88 10.84 10.84 0 0 1 .19-2.07 11.2 11.2 0 0 1 11-9.17 11.24 11.24 0 0 1 11.25-11.21 10.69 10.69 0 0 1 2.42.27 11.22 11.22 0 0 1 8.4 7.92 11 11 0 0 1 3.11-.4 10.8 10.8 0 0 1 7.61 3.1 9.82 9.82 0 0 1 1.39 1.59 11 11 0 0 1 15.25 7.91 12 12 0 0 1 -1.57 8.02z" stroke="#000" stroke-linecap="round" stroke-linejoin="round" stroke-width="2"/><path d="m26.13 18.01-3.67-3.68" stroke="#000" stroke-linecap="round" stroke-linejoin="round" stroke-width="2"/><ellipse cx="41.23" cy="22.21" rx=".93" ry="2.12" transform="matrix(.45476788 -.89061 .89061 .45476788 2.7 48.83)"/><ellipse cx="44.14" cy="24.86" rx=".6" ry="1.37" transform="matrix(.83 -.55 .55 .83 -6.38 28.63)"/><path d="m32.5 47.85a1.69 1.69 0 0 0 1.24-.43 1.58 1.58 0 0 0 .43-1.22h3.58a4.5 4.5 0 0 1 -.39 1.89 4.27 4.27 0 0 1 -1.08 1.44 4.82 4.82 0 0 1 -1.64.94 6.25 6.25 0 0 1 -2 .33 6.16 6.16 0 0 1 -2.52-.48 5 5 0 0 1 -1.84-1.32 5.46 5.46 0 0 1 -1.08-2 8 8 0 0 1 -.36-2.46v-.26a8.13 8.13 0 0 1 .36-2.46 5.5 5.5 0 0 1 1.08-2 4.94 4.94 0 0 1 1.78-1.31 6.18 6.18 0 0 1 2.49-.47 6.4 6.4 0 0 1 2.11.33 4.51 4.51 0 0 1 1.64 1 4.26 4.26 0 0 1 1.07 1.55 5.43 5.43 0 0 1 .38 2.08h-3.58a3.19 3.19 0 0 0 -.09-.77 1.71 1.71 0 0 0 -.32-.63 1.57 1.57 0 0 0 -.53-.42 1.82 1.82 0 0 0 -.77-.15 1.52 1.52 0 0 0 -.94.27 1.64 1.64 0 0 0 -.52.7 3.84 3.84 0 0 0 -.26 1 12.47 12.47 0 0 0 -.06 1.25v.26a12.79 12.79 0 0 0 .06 1.28 3.86 3.86 0 0 0 .26 1 1.62 1.62 0 0 0 .56.7 1.66 1.66 0 0 0 .94.36z" stroke="#000" stroke-linecap="round" stroke-linejoin="round" stroke-width="2"/><circle cx="23.88" cy="39.01" r="2.19" stroke="#000" stroke-linecap="round" stroke-linejoin="round" stroke-width="2"/></g><path d="m1.82 46.6a10.84 10.84 0 0 0 -.19 2.07 11.22 11.22 0 0 0 1.66 5.88 2.81 2.81 0 0 0 2.41 1.31h5a2.81 2.81 0 0 1 -2.41-1.31 11.22 11.22 0 0 1 -1.66-5.88 10.84 10.84 0 0 1 .19-2.07 11.2 11.2 0 0 1 11-9.17 11.16 11.16 0 0 1 3.51-8.14 11.28 11.28 0 0 1 4-2.44c1.62-.57 2.68-1.12 3.73-.64a3.1 3.1 0 0 1 1.43 1.58 13.59 13.59 0 0 1 4.06-6.58 13.39 13.39 0 0 1 5.36-2.91 10.83 10.83 0 0 0 -2.5-.29 11.29 11.29 0 0 0 -10.93 8.47 10.69 10.69 0 0 0 -2.42-.27 11.24 11.24 0 0 0 -11.22 11.22 11.2 11.2 0 0 0 -11.02 9.17z" opacity=".25"/><path d="m51.5 37.73a10.85 10.85 0 0 0 -2.5.27 11 11 0 0 1 8.26 8.58 12 12 0 0 1 -1.57 8s0 0 0 0a2.79 2.79 0 0 1 -2.36 1.23h5a2.79 2.79 0 0 0 2.36-1.23s0 0 0 0a12 12 0 0 0 1.57-8 10.93 10.93 0 0 0 -10.76-8.85z" fill="#fff"/><path d="m37.42 18a10.89 10.89 0 0 0 -2.5.29 11.26 11.26 0 0 1 8.78 11 8.64 8.64 0 0 1 -.33 2.71 6.52 6.52 0 0 1 -1.68 2.58 5.47 5.47 0 0 0 1.24.74 5.8 5.8 0 0 0 .8.27 5.41 5.41 0 0 1 1.72 1.12 5.27 5.27 0 0 1 .79 1 8.07 8.07 0 0 0 -.64-.67 11.29 11.29 0 0 0 -8.18-19.04z" fill="#fff"/></svg>